<?xml version="1.0" standalone="no"?>
<!DOCTYPE svg PUBLIC "-//W3C//DTD SVG 20010904//EN"
 "http://www.w3.org/TR/2001/REC-SVG-20010904/DTD/svg10.dtd">
<svg version="1.0" xmlns="http://www.w3.org/2000/svg"
 width="512.000000pt" height="512.000000pt" viewBox="0 0 512.000000 512.000000"
 preserveAspectRatio="xMidYMid meet">
<metadata>
Created by potrace 1.11, written by Peter Selinger 2001-2013
</metadata>
<g transform="translate(0.000000,512.000000) scale(0.100000,-0.100000)"
fill="#000000" stroke="none">
<path d="M2795 4595 c-57 -20 -132 -105 -181 -206 -73 -148 -128 -345 -208
-742 -24 -117 -46 -205 -49 -197 -3 8 -31 177 -62 375 -77 488 -105 597 -171
654 -44 39 -79 40 -131 2 -41 -30 -111 -127 -157 -218 -84 -168 -193 -560
-231 -833 -28 -201 -74 -605 -100 -876 -17 -168 -17 -173 4 -276 50 -246 98
-378 146 -400 28 -13 32 -23 11 -31 -20 -8 -27 -61 -28 -217 -3 -255 0 -290
20 -290 11 0 27 9 37 20 18 20 18 20 36 -2 l19 -21 113 32 c61 18 122 37 135
43 26 14 29 33 5 43 -14 5 -6 11 31 23 55 19 73 42 32 42 -14 0 -75 -18 -136
-39 -124 -44 -112 -48 -124 41 -4 36 -3 37 37 53 23 8 74 22 112 30 53 11 76
21 93 41 36 41 18 49 -85 35 -48 -6 -105 -14 -125 -17 l-38 -7 0 41 c0 41 0
41 53 58 28 9 85 17 124 19 72 2 103 15 103 41 0 9 -12 14 -36 14 -32 0 -35 2
-23 16 30 36 -31 39 -185 8 -37 -8 -72 -16 -76 -19 -5 -3 -12 0 -15 6 -4 5
-13 8 -21 5 -30 -11 -12 20 21 38 20 11 76 66 126 122 49 57 102 112 117 123
l28 19 53 -101 c173 -326 255 -459 346 -556 86 -92 135 -121 205 -121 47 0 64
5 97 29 123 89 242 317 383 735 31 94 61 171 67 173 25 9 109 -77 267 -267 92
-113 179 -211 193 -218 32 -18 84 -8 109 19 24 27 31 178 14 307 -16 129 -74
407 -136 661 -38 159 -51 227 -43 232 8 5 7 9 -4 15 -10 6 -36 85 -72 219
-129 480 -309 956 -442 1163 -52 82 -120 150 -162 162 -45 12 -47 12 -96 -5z
m67 -125 c136 -112 325 -545 494 -1128 35 -122 64 -224 64 -226 0 -2 -28 5
-62 15 -180 56 -431 68 -617 30 -297 -62 -616 -247 -1074 -624 -60 -49 -111
-86 -115 -83 -14 15 88 868 143 1191 39 226 58 299 119 438 132 308 209 389
270 285 42 -73 73 -208 142 -628 36 -223 72 -420 80 -438 11 -28 18 -33 40
-30 49 6 63 42 114 284 104 493 153 675 219 816 61 129 112 156 183 98z m289
-1386 c109 -20 274 -73 263 -84 -5 -4 -398 -130 -874 -279 -476 -150 -877
-276 -892 -281 -16 -5 -28 -7 -28 -5 0 2 60 51 133 109 413 325 706 489 967
541 94 19 330 18 431 -1z m358 -309 c22 -88 53 -226 70 -307 52 -251 94 -565
73 -543 -5 6 -70 85 -145 176 -205 251 -274 304 -393 303 -69 0 -166 -40 -237
-96 -22 -18 -42 -28 -44 -23 -12 34 -71 130 -84 138 -9 6 -29 7 -45 3 -29 -7
-46 -24 -196 -196 -41 -47 -90 -94 -110 -104 l-36 -20 -116 58 c-108 54 -120
58 -171 54 -73 -6 -112 -35 -243 -179 -59 -65 -113 -121 -119 -124 -23 -8 -42
6 -63 50 -20 42 -81 266 -94 350 l-7 41 958 290 c527 160 959 290 960 290 1
-1 20 -73 42 -161z m-779 -472 c48 -111 73 -116 189 -39 78 52 147 84 157 73
5 -5 -72 -254 -85 -275 -4 -7 -27 -3 -66 10 -84 29 -215 28 -310 -2 -74 -23
-219 -92 -320 -153 -33 -19 -63 -32 -66 -29 -8 8 -149 270 -149 276 0 11 65
-16 132 -55 56 -33 85 -44 128 -47 77 -5 120 26 250 176 58 66 107 121 110
121 3 0 16 -25 30 -56z m100 -274 c78 -17 130 -41 130 -58 -1 -9 -20 -63 -43
-120 l-42 -104 -145 2 c-162 2 -229 -11 -317 -58 l-52 -29 -29 47 c-74 118
-76 122 -61 136 8 8 80 48 160 89 191 97 289 120 399 95z m-1000 -229 c-20
-13 -33 -13 -25 0 3 6 14 10 23 10 15 0 15 -2 2 -10z m982 -106 l38 -7 -41
-78 c-48 -93 -110 -166 -156 -186 -29 -11 -38 -11 -70 2 -21 9 -57 35 -81 58
-45 44 -117 136 -111 141 15 13 98 49 142 61 54 14 214 19 279 9z"/>
<path d="M808 1904 c-30 -16 -31 -20 -48 -221 -23 -277 -5 -367 61 -307 16 14
18 14 24 -5 8 -25 23 -26 54 -5 21 15 22 20 16 98 -4 44 -2 161 5 260 6 98 8
181 5 185 -14 14 -60 -27 -72 -64 l-13 -40 6 51 c3 29 2 54 -3 57 -4 3 -20 -1
-35 -9z"/>
<path d="M1378 1873 c-70 -23 -175 -108 -225 -181 -23 -34 -52 -94 -64 -132
-19 -63 -20 -74 -7 -112 27 -87 113 -107 299 -72 90 16 129 35 129 60 0 9 10
24 23 34 37 30 14 33 -78 10 -110 -28 -163 -22 -200 21 -47 56 -24 151 52 220
53 48 158 109 187 109 13 0 31 9 40 19 17 19 17 20 -3 30 -28 15 -98 13 -153
-6z m-59 -84 c-24 -17 -57 -43 -73 -58 l-29 -26 19 26 c20 28 101 89 118 89 5
0 -11 -14 -35 -31z"/>
<path d="M1060 1236 c-168 -47 -318 -222 -328 -382 -4 -61 -3 -65 30 -98 46
-46 98 -53 230 -31 142 23 175 39 169 77 0 4 8 12 19 18 19 10 28 40 13 40 -5
0 -37 -9 -71 -20 -71 -22 -148 -26 -186 -9 -35 16 -60 72 -51 117 9 50 28 83
70 124 44 43 163 114 183 110 15 -4 62 24 62 37 0 11 -47 31 -73 30 -12 0 -42
-6 -67 -13z m-76 -82 c-21 -14 -56 -42 -78 -62 -35 -33 -37 -34 -21 -9 18 28
110 97 129 97 5 0 -9 -12 -30 -26z"/>
<path d="M1455 1215 c-27 -14 -63 -33 -78 -41 -20 -11 -32 -13 -39 -6 -10 10
-58 -4 -58 -17 0 -3 -2 -60 -5 -126 -2 -66 -1 -168 2 -227 6 -115 14 -128 55
-91 17 15 18 15 18 0 0 -23 33 -22 53 1 12 13 17 37 17 83 1 63 1 65 43 100
l42 36 43 -96 c23 -53 49 -113 57 -133 10 -24 22 -38 33 -38 22 0 42 19 42 40
0 10 7 32 16 49 45 90 -27 241 -115 241 l-25 0 26 28 c51 54 62 110 34 176
-11 27 -21 34 -52 39 -55 9 -54 10 -109 -18z m86 -62 c13 -16 12 -17 -3 -4
-17 13 -22 21 -14 21 2 0 10 -8 17 -17z m-69 -50 c26 -24 22 -56 -14 -109
l-33 -46 -7 44 c-3 23 -7 62 -7 86 -1 37 2 42 21 42 12 0 30 -7 40 -17z"/>
<path d="M2060 1203 c-14 -2 -51 -11 -84 -19 -44 -11 -62 -11 -72 -3 -8 6 -14
8 -14 3 0 -5 -4 -2 -10 6 -16 25 -58 -6 -66 -49 -4 -20 -11 -42 -17 -48 -6 -9
-6 -13 1 -13 7 0 8 -50 5 -153 -7 -183 0 -247 26 -247 10 0 24 7 31 15 12 14
15 14 30 0 9 -8 24 -15 33 -15 18 0 243 66 258 76 17 10 9 33 -13 36 -18 3
-12 7 22 17 47 14 70 27 70 42 0 5 -9 9 -20 9 -21 0 -190 -55 -224 -72 -25
-13 -33 -2 -41 58 l-7 52 64 21 c35 11 82 23 106 27 46 7 92 37 92 60 0 18
-86 18 -187 0 l-73 -13 0 42 0 42 63 18 c34 10 90 18 124 19 44 1 67 6 79 18
22 22 10 38 -29 38 -24 0 -28 3 -19 12 7 7 12 16 12 20 0 8 -94 9 -140 1z
m-55 -63 c-11 -5 -27 -9 -35 -9 -9 0 -8 4 5 9 11 5 27 9 35 9 9 0 8 -4 -5 -9z"/>
<path d="M2551 1176 c-13 -15 -186 -402 -201 -449 -8 -26 -9 -42 -2 -49 14
-14 48 6 66 40 l15 27 -6 -37 c-4 -30 -2 -38 10 -38 9 0 18 4 21 9 8 12 233
74 245 67 5 -3 14 -26 20 -51 13 -50 16 -52 50 -29 20 15 22 22 17 63 -6 43
-4 47 24 63 44 25 39 41 -10 33 -46 -8 -53 6 -15 31 35 23 32 42 -7 46 l-33 3
-36 140 -36 140 -56 1 c-32 1 -60 -3 -66 -10z m116 -294 c-1 -7 -30 -28 -63
-47 l-61 -33 45 115 46 115 18 -68 c10 -38 17 -75 15 -82z"/>
<path d="M3105 1161 c-37 -17 -45 -28 -83 -108 -56 -121 -141 -443 -116 -443
18 0 48 26 59 53 l14 32 -2 -39 c-2 -45 11 -54 42 -29 17 14 23 31 25 69 3 66
58 288 67 272 3 -7 9 -44 13 -83 12 -128 30 -235 39 -235 5 0 21 6 35 13 15 8
41 20 57 28 21 10 32 24 35 44 7 41 100 219 109 209 4 -5 16 -56 26 -114 9
-58 26 -129 37 -158 18 -47 23 -53 42 -47 11 4 32 6 46 6 14 0 34 6 44 14 18
14 18 19 7 87 -7 40 -35 141 -62 225 -28 84 -49 165 -47 180 3 25 0 28 -23 26
-34 -2 -105 -51 -158 -108 -40 -44 -101 -154 -101 -184 0 -8 -3 -11 -7 -7 -8
8 -32 202 -33 269 0 53 -4 55 -65 28z"/>
</g>
</svg>
